# xmcd CD database file
#
# Track frame offsets:
#	150
#	25200
#	36587
#	46850
#	59687
#	69412
#	79525
#	90250
#	111337
#	121000
#	131887
#	144475
#	154834
#	165662
#	174010
#
# Disc length: 2482 seconds
#
# Revision: 0
# Processed by: cddbd v1.4PL0 Copyright (c) Steve Scherf et al.
# Submitted via: CDex 1.40Beta9
#
DISCID=c109b00f
DTITLE=Roots of Country  - Roots of Country - Disk 3
DYEAR=1900
DGENRE=Country
TTITLE0="Five Minutes with Minnie Pearl," Sarah Ophelia Colley
TTITLE1="When I Stop Dreaming," The Louvin Brothers 
TTITLE2="Why Baby Why," George Jones 
TTITLE3="Folsom Prison Blues," Johnny Cash 
TTITLE4="Matchbox," Carl Perkins 
TTITLE5="It's Only Make Believe," Conway Twitty 
TTITLE6="Bye, Bye Love," The Everly Brothers 
TTITLE7="El Paso," Marty Robbins 
TTITLE8="A Six Pack to Go," Hank Thompson 
TTITLE9="Hello Walls," Faron Young 
TTITLE10="I've Been Everywhere," Hank Snow 
TTITLE11="Six Days on the Road," Dave Dudley 
TTITLE12="Green Green Grass of Home," Porter Wagoner 
TTITLE13="Dang Me," Roger Miller 
TTITLE14="Crazy," Patsy Cline 
EXTD=ID3G: 2
EXTT0=
EXTT1=
EXTT2=
EXTT3=
EXTT4=
EXTT5=
EXTT6=
EXTT7=
EXTT8=
EXTT9=
EXTT10=
EXTT11=
EXTT12=
EXTT13=
EXTT14=
PLAYORDER=
